<?xml version="1.0" encoding="UTF-8"?>
<svg width="24px" height="16px" version="1.1" viewBox="0 0 24 16" xml:space="preserve" xmlns="http://www.w3.org/2000/svg"><rect x="6.3977" y="3.5259" width="11.108" height="10.849" ry=".073677" fill="#fff" stroke="#fff" stroke-linecap="round" stroke-linejoin="round" stroke-miterlimit="4.9" stroke-width="1.062" style="paint-order:markers fill stroke"/><g fill="none" fill-rule="evenodd"><g id="Core" transform="translate(-504 -88)" fill="#000"><g id="cloud-download" transform="translate(504 88)"><path id="Shape" d="m19.4 6c-0.7-3.4-3.7-6-7.4-6-2.9 0-5.4 1.6-6.6 4-3.1 0.4-5.4 2.9-5.4 6 0 3.3 2.7 6 6 6h13c2.8 0 5-2.2 5-5 0-2.6-2.1-4.8-4.6-5zm-2.4 2-5 6-5-6h3v-3h4v3z"/></g></g></g><g transform="matrix(1 0 0 1.0196 -28.095 -4.3453)" fill="none"><g transform="matrix(.73757 0 0 .73757 29.711 3.083)" clip-rule="evenodd" fill-rule="evenodd"><path d="m17.122 15.664c0.19167-0.43216 0.29875-0.91316 0.29875-1.1296 0-1.876-1.4649-3.3971-3.2717-3.3971-1.8067 0-3.2716 1.5211-3.2716 3.3971s1.6358 3.1067 3.2716 3.1067c1.0464 0 1.9777-0.50921 2.5752-1.3021 0.15656-0.20733 0.2908-0.43376 0.3978-0.67506zm-2.9729 0.27862c0.40896 0 0.78282-0.15594 1.0703-0.41386 0.34671-0.311 0.49934-0.77129 0.49934-0.99436 0-0.93802-0.66546-1.6986-1.5697-1.6986-0.90412 0-1.6436 0.7593-1.6436 1.6973 0 0.64772 0.73944 1.4095 1.6436 1.4095z" fill="#000" stroke-width=".80128"/><path d="m1.0921 14.272c-0.01591-0.0197 0.01591 0.0207 0 0-0.12448-0.1703-0.12135-0.3728 5.6e-4 -0.5451 0.00893-0.0126 0.01803-0.0257 0.02725-0.0391 3.6611-5.345 8.2011-8.1882 12.894-8.1882 4.6883 0 9.2243 2.8355 12.881 8.1698 0.0694 0.1012 0.1044 0.2052 0.1044 0.3297 0 0.1306-0.0407 0.2404-0.1137 0.3466-3.6561 5.3241-8.1881 8.1539-12.872 8.1539-4.7051 0-9.257-2.8567-12.922-8.2276zm2.847-0.9199c-0.30099 0.3742-0.30099 0.9197-1e-5 1.294 3.1351 3.8978 6.6651 5.7284 10.075 5.7284 3.4101 0 6.9401-1.8306 10.075-5.7284 0.301-0.3743 0.301-0.9198 0-1.294-3.1351-3.8978-6.6651-5.7274-10.075-5.7274-3.41 0-6.94 1.8296-10.075 5.7274z" fill="#fff"/></g></g></svg>
