<?xml version="1.0" standalone="no"?>
<!DOCTYPE svg PUBLIC "-//W3C//DTD SVG 20010904//EN"
 "http://www.w3.org/TR/2001/REC-SVG-20010904/DTD/svg10.dtd">
<svg version="1.0" xmlns="http://www.w3.org/2000/svg"
 width="512.000000pt" height="512.000000pt" viewBox="0 0 512.000000 512.000000"
 preserveAspectRatio="xMidYMid meet">
<metadata>
Created by potrace 1.14, written by Peter Selinger 2001-2017
</metadata>
<g transform="translate(0.000000,512.000000) scale(0.100000,-0.100000)"
fill="#000000" stroke="none">
<path d="M2419 4266 c-2 -2 -33 -7 -69 -10 -90 -10 -249 -49 -350 -86 -334
-123 -623 -363 -795 -660 -27 -47 -49 -86 -51 -88 -1 -2 -12 -5 -25 -7 -27 -5
-112 -23 -147 -30 -119 -27 -307 -113 -432 -198 -92 -63 -249 -218 -314 -311
-96 -135 -172 -313 -212 -496 -18 -79 -24 -286 -11 -395 36 -318 206 -626 460
-834 155 -126 311 -203 521 -259 l101 -26 1525 -3 c863 -1 1549 2 1580 7 91
15 112 20 179 41 323 102 575 350 681 668 28 84 33 109 49 219 12 82 5 260
-14 337 -9 39 -18 77 -20 85 -15 64 -86 213 -137 289 -81 118 -179 218 -296
299 -133 92 -250 139 -421 171 l-84 16 -18 72 c-135 519 -517 934 -1024 1112
-71 25 -207 59 -305 76 -39 7 -365 16 -371 11z"/>
</g>
</svg>
